<?xml version="1.0" encoding="utf-8"?>
<!-- Generator: Adobe Illustrator 23.0.1, SVG Export Plug-In . SVG Version: 6.00 Build 0)  -->
<svg version="1.1" id="Layer_1" xmlns="http://www.w3.org/2000/svg" xmlns:xlink="http://www.w3.org/1999/xlink" x="0px" y="0px"
	 viewBox="0 0 338.5 79.1" style="enable-background:new 0 0 338.5 79.1;" xml:space="preserve">
<style type="text/css">
	.st0{fill:#010202;}
</style>
<g>
	<polygon class="st0" points="100.7,17.5 91.3,17.5 91.2,61 117.4,61.1 117.4,52.4 100.6,52.3 	"/>
	
		<rect x="110.9" y="39.7" transform="matrix(1.637221e-03 -1 1 1.637221e-03 83.2113 171.8849)" class="st0" width="33.6" height="9.1"/>
	
		<rect x="123.5" y="14.2" transform="matrix(1.637221e-03 -1 1 1.637221e-03 108.7529 146.4684)" class="st0" width="8.4" height="9.1"/>
	<path class="st0" d="M166.6,30.9c-3.1-2.9-6.8-4.3-11.2-4.3c-3.1,0-5.9,0.7-8.5,2.2s-4.6,3.5-6.1,6.1s-2.2,5.4-2.2,8.5
		c0,3.1,0.7,5.9,2.2,8.5s3.5,4.6,6.1,6.1c2.6,1.5,5.4,2.2,8.5,2.2c3.5,0,6.7-1,9.6-3l0,1.3c0,2.4-0.8,4.3-2.4,5.7
		c-1.6,1.4-3.6,2.1-6,2.1c-1.8,0-3.4-0.4-4.9-1.2c-1.5-0.8-2.5-1.9-3-3.4l-9,0c0.8,3.8,2.7,6.9,5.7,9.1c3,2.2,6.8,3.3,11.4,3.3
		c5.3,0,9.5-1.5,12.6-4.5c3.1-3,4.6-7.2,4.6-12.4l0-29.7l-5.9,0L166.6,30.9z M162.6,49.7c-1.6,1.6-3.7,2.5-6.1,2.5
		c-2.5,0-4.5-0.8-6.2-2.5c-1.6-1.6-2.4-3.7-2.4-6.2c0-2.5,0.8-4.6,2.4-6.2c1.6-1.6,3.7-2.4,6.1-2.4c2.5,0,4.5,0.8,6.2,2.4
		c1.6,1.6,2.4,3.7,2.4,6.2S164.2,48,162.6,49.7z"/>
	<path class="st0" d="M201.1,26.8c-4,0-7.4,1.3-10.2,3.9l0-15.3l-9.1,0l-0.1,45.7l9.1,0l0-17.7c0-2.7,0.7-4.9,2.1-6.4
		c1.4-1.6,3.2-2.4,5.5-2.4c2,0,3.5,0.6,4.4,1.9c0.9,1.2,1.4,3.1,1.4,5.7l0,18.9l9.1,0l0-20.4c0-4.3-1.1-7.7-3.3-10.2
		C207.9,28.1,204.9,26.8,201.1,26.8z"/>
	<path class="st0" d="M229.9,51.8c-0.9-0.9-1.3-2.2-1.3-3.8l0-13.1l9.1,0l0-7.3l-9.3,0l0-8.8l-8.9,0l0,16.1l0,14.3
		c0,3.7,1.1,6.7,3.2,8.8c2.1,2.1,5,3.2,8.7,3.2l6.4,0l0-8.1l-4.1,0C232,53.1,230.8,52.7,229.9,51.8z"/>
	<path class="st0" d="M334.4,53.5c-1.7,0-2.9-0.4-3.8-1.3c-0.9-0.9-1.3-2.2-1.3-3.8l0-13.1l9.1,0l0-7.3l-9.3,0l0-8.8l-8.9,0l0,16.1
		l0,14.3c0,3.7,1.1,6.7,3.2,8.8c2.1,2.1,5,3.2,8.7,3.2l6.4,0l0-8.1L334.4,53.5L334.4,53.5z"/>
	<path class="st0" d="M268.8,29.1c-2.8-1.5-5.9-2.3-9.3-2.3c-3.4,0-6.5,0.8-9.3,2.3c-2.8,1.5-5,3.7-6.5,6.4
		c-1.6,2.7-2.4,5.7-2.4,9.1c0,3.3,0.8,6.3,2.4,9.1c1.6,2.7,3.7,4.8,6.5,6.4c2.8,1.5,5.9,2.3,9.3,2.3c3.4,0,6.5-0.8,9.3-2.3
		c2.8-1.5,5-3.7,6.5-6.4c1.6-2.7,2.4-5.7,2.4-9.1c0-3.3-0.8-6.4-2.4-9.1C273.7,32.7,271.6,30.6,268.8,29.1z M265.9,51.2
		c-1.7,1.7-3.8,2.6-6.4,2.6s-4.8-0.9-6.4-2.6c-1.7-1.7-2.5-3.9-2.5-6.6c0-2.7,0.8-4.9,2.5-6.6c1.7-1.7,3.8-2.6,6.4-2.6
		c2.6,0,4.8,0.9,6.4,2.6c1.7,1.7,2.5,3.9,2.5,6.6C268.4,47.2,267.5,49.4,265.9,51.2z"/>
	<path class="st0" d="M305,46.2c0,2.4-0.6,4.2-1.8,5.6c-1.2,1.4-2.8,2-4.9,2c-2.1,0-3.8-0.7-5-2c-1.2-1.3-1.8-3.2-1.8-5.6l0-18.4
		l-9.1,0l0,19.4c0,4.5,1.5,8.2,4.4,11c2.9,2.8,6.7,4.2,11.5,4.2s8.6-1.4,11.5-4.2c2.9-2.8,4.3-6.4,4.3-11l0-19.4l-9.1,0L305,46.2z"
		/>
	<path class="st0" d="M0.1,11.3l0,10.9l39.8,0.1l0-6.3L17.2,1.7C9.8-2.9,0.1,2.5,0.1,11.3z"/>
	<path class="st0" d="M62.5,30.2l-12.7-8L49.7,57l12.7-8C69.4,44.8,69.5,34.6,62.5,30.2z"/>
	<polygon class="st0" points="24.8,72.7 39.8,63.3 39.9,32.2 24.9,32.2 	"/>
	<path class="st0" d="M0,68c0,8,7.9,13,14.9,10.5l0-21.4L0,57.1L0,68z"/>
	<rect x="0" y="32.2" transform="matrix(1.637221e-03 -1 1 1.637221e-03 -32.1877 47.1032)" class="st0" width="15" height="14.9"/>
</g>
</svg>
